<svg width="33" height="30" viewBox="0 0 33 30" fill="none" xmlns="http://www.w3.org/2000/svg">
<g opacity="0.7">
<path d="M8.08771 2.47217H24.2633C24.6208 2.47217 24.9636 2.6024 25.2164 2.83422C25.4692 3.06603 25.6112 3.38044 25.6112 3.70828V27.3712C25.6114 27.4817 25.5792 27.5902 25.5181 27.6854C25.4569 27.7807 25.3691 27.8592 25.2636 27.9127C25.1582 27.9662 25.039 27.9928 24.9186 27.9897C24.7981 27.9867 24.6807 27.9541 24.5787 27.8953L16.1755 22.287L7.77229 27.894C7.67034 27.9528 7.55309 27.9854 7.43274 27.9885C7.31238 27.9916 7.19332 27.9651 7.08792 27.9117C6.98252 27.8584 6.89464 27.7801 6.83341 27.685C6.77218 27.5899 6.73984 27.4816 6.73975 27.3712V3.70828C6.73975 3.38044 6.88176 3.06603 7.13456 2.83422C7.38735 2.6024 7.73021 2.47217 8.08771 2.47217ZM22.9153 4.94439H9.43567V24.0201L16.1755 19.371L22.9153 24.0201V4.94439Z" fill="#9C9EA8"/>
</g>
</svg>
