<svg width="33" height="30" viewBox="0 0 33 30" fill="none" xmlns="http://www.w3.org/2000/svg">
<path d="M28.3073 24.7222C28.3073 25.05 28.1653 25.3644 27.9125 25.5963C27.6597 25.8281 27.3168 25.9583 26.9593 25.9583H5.39191C5.03441 25.9583 4.69155 25.8281 4.43875 25.5963C4.18596 25.3644 4.04395 25.05 4.04395 24.7222V11.7307C4.0438 11.5423 4.09061 11.3564 4.18079 11.1871C4.27096 11.0179 4.40213 10.8698 4.56426 10.7541L15.348 3.06305C15.5846 2.89426 15.8758 2.80261 16.1756 2.80261C16.4754 2.80261 16.7666 2.89426 17.0033 3.06305L27.787 10.7541C27.9491 10.8698 28.0803 11.0179 28.1704 11.1871C28.2606 11.3564 28.3074 11.5423 28.3073 11.7307V24.7222ZM25.6113 23.4861V12.3339L16.1756 5.6045L6.73987 12.3339V23.4861H25.6113Z" fill="#BABBC2"/>
</svg>
